# xmcd
#
# Track frame offsets:
#	150
#	13353
#	25958
#	38500
#	51463
#	63438
#	75055
#	85435
#	96418
#	111010
#	123693
#	137940
#
# Disc length: 2044 seconds
#
# Revision: 3
# Processed by: cddbd v1.5.2PL0 Copyright (c) Steve Scherf et al.
# Submitted via: audiograbber 1.83.01
#
DISCID=a207fa0c
DTITLE=Smokey Robinson and The Miracles - Away We A Go-Go
DYEAR=1900
DGENRE=Oldies
TTITLE0=The Tracks Of My Tears
TTITLE1=Going To A Go-Go
TTITLE2=Ooo Baby Baby
TTITLE3=My Girl Has Gone
TTITLE4=In Case You Need Love
TTITLE5=Choosey Beggar
TTITLE6=Since You Won My Heart
TTITLE7=From Head To Toe
TTITLE8=All That's Good
TTITLE9=My Baby Changes Like The Weather
TTITLE10=Let Me Have Some
TTITLE11=A Fork In The Road
EXTD=
EXTT0=
EXTT1=
EXTT2=
EXTT3=
EXTT4=
EXTT5=
EXTT6=
EXTT7=
EXTT8=
EXTT9=
EXTT10=
EXTT11=
PLAYORDER=
